<?xml version="1.0" encoding="UTF-8" standalone="no"?>
<!-- Created with Inkscape (http://www.inkscape.org/) -->

<svg
   width="5.2529373in"
   height="5.2489834in"
   viewBox="0 0 100.05595 99.980636"
   version="1.1"
   id="svg1"
   xmlns="http://www.w3.org/2000/svg"
   xmlns:svg="http://www.w3.org/2000/svg">
  <defs
     id="defs1" />
  <g
     id="layer1"
     transform="translate(-0.00779582,-0.00755788)">
    <g
       id="g123534"
       transform="matrix(0.05842252,0,0,0.05870007,-3.785116,-1.5073234)">
      <path
         d="m 1001.157,1321.184 c 0,1.312 -0.774,245.94 -1.208,285.87 -0.465,42.856 -37.396,76.891 -80.711,76.891 -42.969,0 -80.57,-33.462 -80.656,-75.865 -0.099,-48.441 0.966,-285.238 0.966,-286.896 0,-44.627 36.177,-80.805 80.804,-80.805 44.627,0 80.805,36.178 80.805,80.805 z"
         fill="none"
         stroke="#000000"
         stroke-width="4"
         id="path123531" />
      <path
         d="M 67.06,1697.835 V 497.515 h 44.841 V 420.286 H 67.061 V 65.681 c 0,-5.208 -0.817,-12.794 1.52,-16.949 2.653,-4.714 16.53,-20.553 24.407,-20.757 5.079,-0.131 10.114,-0.131 10.114,-0.131 h 1640.274 c 0,0 7.8,-0.354 10.587,1.132 2.786,1.486 20.948,17.656 21.283,21.49 0.359,4.1 0.263,5.222 0.263,5.222 v 1637.166 c 0,0 0.342,7.638 -0.985,11.038 -1.454,3.726 -8.21,16.7 -12.412,20.469 -2.964,2.657 -7.559,2.526 -11.813,2.543 -68.853,0.272 -631.286,0 -631.286,0 0,0 -3.94,-15.287 -20.752,-14.893 -16.811,0.394 -21.146,14.893 -21.146,14.893 h -316.5 c 0,0 -3.159,-16.033 -21.733,-16.219 -18.574,-0.186 -20.431,16.22 -20.431,16.22 0,0 -577.7,0.332 -637.66,0 -3.064,-0.018 -3.746,-1.56 -5.751,-2.475 -3.473,-1.585 -7.782,-8.562 -7.801,-11.98 -0.051,-8.862 -0.143,-4.528 -0.179,-14.615 z"
         fill="none"
         stroke="#000000"
         stroke-width="4"
         id="path123532" />
      <circle
         cx="922.70697"
         cy="880.87598"
         fill="none"
         r="177.569"
         stroke="#000000"
         stroke-width="4"
         id="circle123532" />
      <circle
         cx="607.74799"
         cy="965.85901"
         fill="none"
         r="38.633999"
         stroke="#000000"
         stroke-width="4"
         id="circle123533" />
      <circle
         cx="922.70697"
         cy="880.87598"
         fill="none"
         r="251.123"
         stroke="#000000"
         stroke-width="4"
         id="circle123534" />
    </g>
  </g>
</svg>
