<svg xmlns="http://www.w3.org/2000/svg" width="504" height="504" viewBox="0 0 100 100">
    <g fill="none" style="stroke:#000;stroke-opacity:1" transform="matrix(.05847 0 0 .05878 -3.854 -1.576)">
        <path d="M1001.157 1321.184c0 1.312-.774 245.94-1.208 285.87-.465 42.856-37.396 76.891-80.711 76.891-42.969 0-80.57-33.462-80.656-75.865-.099-48.441.966-285.238.966-286.896 0-44.627 36.177-80.805 80.804-80.805s80.805 36.178 80.805 80.805z"
              style="display:inline;fill-opacity:0;stroke:#000;stroke-width:1.98647;stroke-opacity:1"/>
        <path d="M67.06 1697.835V497.515h44.841v-77.229h-44.84V65.681c0-5.208-.817-12.794 1.52-16.949 2.653-4.714 16.53-20.553 24.407-20.757 5.079-.131 10.114-.131 10.114-.131h1640.274s7.8-.354 10.587 1.132c2.786 1.486 20.948 17.656 21.283 21.49.359 4.1.263 5.222.263 5.222v1637.166s.342 7.638-.985 11.038c-1.454 3.726-8.21 16.7-12.412 20.469-2.964 2.657-7.559 2.526-11.813 2.543-68.853.272-631.286 0-631.286 0s-3.94-15.287-20.752-14.893c-16.811.394-21.146 14.893-21.146 14.893h-316.5s-3.159-16.033-21.733-16.219c-18.574-.186-20.431 16.22-20.431 16.22s-577.7.332-637.66 0c-3.064-.018-3.746-1.56-5.751-2.475-3.473-1.585-7.782-8.562-7.801-11.98-.051-8.862-.143-4.528-.179-14.615z"
              style="display:inline;fill:#000;fill-opacity:0;stroke:#000;stroke-width:2;stroke-opacity:1"/>
        <circle cx="922.707" cy="880.876" r="177.569"
                style="display:inline;fill:#000;fill-opacity:0;stroke:#000;stroke-width:2;stroke-opacity:1"/>
        <circle cx="607.748" cy="965.859" r="38.634"
                style="display:inline;opacity:1;fill:#000;fill-opacity:0;stroke:#000;stroke-width:2;stroke-opacity:1"/>
        <circle cx="922.707" cy="880.876" r="251.123"
                style="display:inline;fill:#000;fill-opacity:0;stroke:#000;stroke-width:2;stroke-opacity:1"/>
    </g>
</svg>