<svg
   width="5.25in"
   height="5.25in"
   viewBox="0 0 100.0 100.0"
   version="1.1"
   id="svg1"
   xmlns="http://www.w3.org/2000/svg"
   xmlns:svg="http://www.w3.org/2000/svg">
  <defs
     id="defs1" />
  <g
     id="layer1">
    <g
       id="g123534">
      <path
         d="m 54.6972,76.0388 c 0,0.077 -0.0452,14.4367 -0.0706,16.7806 -0.0272,2.5156 -2.1848,4.5135 -4.7153,4.5135 -2.5104,0 -4.7071,-1.9643 -4.7122,-4.4533 -0.0057,-2.8435 0.0565,-16.7435 0.0565,-16.8408 0,-2.6197 2.1135,-4.7433 4.7207,-4.7433 2.6073,0 4.7209,2.1236 4.7209,4.7433 z"
         fill="none"
         stroke="#000000"
         stroke-width="1"
         id="path123531" />
      <path
         d="M 0.124897,98.1482 V 27.6893 H 2.74462 V 23.156 H 0.124955 V 2.3406 c 0,-0.30571 -0.0477307,-0.75101 0.088803,-0.9949 C 0.368753,1.06898 1.17948,0.139232 1.63968,0.127257 1.9364,0.119568 2.23056,0.119568 2.23056,0.119568 H 98.0595 c 0,0 0.4557,-0.0207801 0.6185,0.066448 0.1628,0.087229 1.2238,1.036414 1.2434,1.261464 0.021,0.24067 0.0154,0.30653 0.0154,0.30653 V 97.8558 c 0,0 0.0199,0.4484 -0.0576,0.648 -0.0849,0.2187 -0.4796,0.9802 -0.7251,1.2015 -0.1732,0.156 -0.4416,0.1483 -0.6902,0.1493 -4.0225,0.0159 -36.8813,0 -36.8813,0 0,0 -0.2302,-0.8974 -1.2124,-0.8743 -0.9821,0.0232 -1.2354,0.8743 -1.2354,0.8743 H 40.6441 c 0,0 -0.1845,-0.9412 -1.2697,-0.9521 -1.0851,-0.0109 -1.1936,0.9521 -1.1936,0.9521 0,0 -33.75069,0.0195 -37.253704,0 C 0.74809,99.8536 0.708246,99.763 0.591109,99.7093 0.388207,99.6163 0.136465,99.2067 0.135355,99.0061 0.132375,98.4859 0.127,98.7403 0.124897,98.1482 Z"
         fill="none"
         stroke="#000000"
         stroke-width="1"
         id="path123532" />
      <circle
         cx="50.113934"
         cy="50.192631"
         fill="none"
         r="10.374025"
         stroke="#000000"
         stroke-width="1"
         id="circle123532" />
      <circle
         cx="31.713242"
         cy="55.181141"
         fill="none"
         r="2.2570949"
         stroke="#000000"
         stroke-width="1"
         id="circle123533" />
      <circle
         cx="50.113934"
         cy="50.192631"
         fill="none"
         r="14.671233"
         stroke="#000000"
         stroke-width="1"
         id="circle123534" />
    </g>
  </g>
</svg>
